<svg width="210" height="121" viewBox="0 0 210 121" fill="none" xmlns="http://www.w3.org/2000/svg">
<path fill-rule="evenodd" clip-rule="evenodd" d="M32.8553 35.5041C29.3754 38.5071 24.8613 40.32 19.9287 40.32C8.92236 40.32 0 31.2941 0 20.16C0 9.02594 8.92236 0 19.9287 0C24.8613 0 29.3754 1.81289 32.8553 4.81595C36.3353 1.81289 40.8494 0 45.782 0C56.7883 0 65.7107 9.02594 65.7107 20.16C65.7107 31.2941 56.7883 40.32 45.782 40.32C40.8494 40.32 36.3353 38.5071 32.8553 35.5041Z" fill="#ED0006"/>
<path fill-rule="evenodd" clip-rule="evenodd" d="M32.8553 35.5041C37.1403 31.8063 39.8573 26.3042 39.8573 20.16C39.8573 14.0158 37.1403 8.51366 32.8553 4.81595C36.3353 1.81289 40.8494 0 45.782 0C56.7883 0 65.7107 9.02594 65.7107 20.16C65.7107 31.2941 56.7883 40.32 45.782 40.32C40.8494 40.32 36.3353 38.5071 32.8553 35.5041Z" fill="#F9A000"/>
<path fill-rule="evenodd" clip-rule="evenodd" d="M32.8554 35.5039C37.1403 31.8062 39.8573 26.304 39.8573 20.1599C39.8573 14.0158 37.1403 8.51363 32.8554 4.81592C28.5705 8.51363 25.8535 14.0158 25.8535 20.1599C25.8535 26.304 28.5705 31.8062 32.8554 35.5039Z" fill="#FF5E00"/>
<path fill-rule="evenodd" clip-rule="evenodd" d="M114.445 36.3943H104.498L97.0394 7.93899C96.6853 6.63004 95.9336 5.47286 94.8279 4.92747C92.0685 3.55687 89.0278 2.46608 85.7107 1.91595V0.820419H101.734C103.945 0.820419 105.604 2.46608 105.88 4.37733L109.75 24.9031L119.692 0.820419H129.362L114.445 36.3943ZM134.89 36.3943H125.497L133.232 0.820419H142.626L134.89 36.3943ZM154.779 10.6755C155.055 8.75949 156.714 7.66396 158.649 7.66396C161.689 7.38889 165.002 7.93903 167.766 9.30488L169.425 1.64566C166.66 0.550136 163.62 0 160.86 0C151.743 0 145.109 4.92751 145.109 11.7663C145.109 16.9688 149.808 19.7006 153.125 21.3462C156.714 22.9871 158.096 24.0827 157.819 25.7236C157.819 28.185 155.055 29.2805 152.296 29.2805C148.979 29.2805 145.661 28.46 142.626 27.0894L140.967 34.7534C144.284 36.1193 147.873 36.6694 151.19 36.6694C161.413 36.9397 167.766 32.017 167.766 24.6281C167.766 15.3232 154.779 14.7778 154.779 10.6755ZM200.641 36.3943L193.183 0.820419H185.171C183.513 0.820419 181.854 1.91595 181.301 3.55687L167.489 36.3943H177.16L179.09 31.1964H190.971L192.077 36.3943H200.641ZM186.553 10.4003L189.313 23.8075H181.578L186.553 10.4003Z" fill="#172B85"/>
<path d="M0 70.3201H94.1177V97.5982L89.459 104.877L94.1177 111.355V120.32H0V93.0124L2.91161 89.6641L0 86.4613V70.3201Z" fill="#016FD0"/>
<path d="M18.2703 112.375V97.5985H33.9157L35.5944 99.7868L37.3286 97.5985H94.1177V111.356C94.1177 111.356 92.6326 112.36 90.9149 112.375H59.4696L57.577 110.046V112.375H51.3753V108.399C51.3753 108.399 50.5281 108.954 48.6966 108.954H46.5857V112.375H37.1958L35.5195 110.14L33.8176 112.375L18.2703 112.375ZM0 86.4616L3.5281 78.2363H9.62965L11.6318 82.8438V78.2363H19.2166L20.4085 81.5665L21.564 78.2363H55.6117V79.9105C55.6117 79.9105 57.4016 78.2363 60.3431 78.2363L71.3903 78.275L73.3579 82.8221V78.2363H79.7052L81.4521 80.8483V78.2363H87.8577V93.0128H81.4521L79.778 90.3923V93.0127H70.4524L69.5145 90.6834H67.0076L66.085 93.0127H59.7607C57.2296 93.0127 55.6117 91.3728 55.6117 91.3728V93.0127H46.0761L44.1836 90.6835V93.0128H8.72576L7.78856 90.6835H5.28937L4.35906 93.0127H0V86.4616Z" fill="white"/>
<path d="M4.77817 80.0583L0.0195312 91.1224H3.11767L3.99571 88.9068H9.10015L9.97356 91.1224H13.14L8.38572 80.0583H4.77817ZM6.53878 82.6331L8.09464 86.5048H4.97838L6.53878 82.6331ZM13.4675 91.1205V80.0564L17.8701 80.0727L20.4308 87.2062L22.9302 80.0564H27.2976V91.1205H24.5316V82.968L21.5995 91.1205H19.1737L16.2335 82.968V91.1205H13.4675ZM29.1901 91.1205V80.0564H38.2161V82.5312H31.9853V84.4238H38.0705V86.7531H31.9853V88.7185H38.2161V91.1205H29.1901ZM39.8176 80.0583V91.1224H42.5836V87.1917H43.7482L47.0646 91.1224H50.4449L46.8053 87.0461C48.299 86.92 49.8398 85.6381 49.8398 83.6477C49.8398 81.3195 48.0124 80.0583 45.9729 80.0583H39.8176ZM42.5836 82.5331H45.7453C46.5039 82.5331 47.0556 83.1264 47.0556 83.6977C47.0556 84.4327 46.3407 84.8624 45.7863 84.8624H42.5836V82.5331ZM53.7932 91.1205H50.969V80.0564H53.7932V91.1205ZM60.4899 91.1205H59.8804C56.9307 91.1205 55.1398 88.7966 55.1398 85.6339C55.1398 82.393 56.9106 80.0564 60.6354 80.0564H63.6926V82.6768H60.5237C59.0117 82.6768 57.9423 83.8569 57.9423 85.6612C57.9423 87.8039 59.1651 88.7038 60.9266 88.7038H61.6545L60.4899 91.1205ZM66.5088 80.0583L61.7501 91.1224H64.8483L65.7262 88.9068H70.8306L71.7042 91.1224H74.8705L70.1164 80.0583H66.5088ZM68.2694 82.6331L69.8252 86.5048H66.7089L68.2694 82.6331ZM75.1935 91.1205V80.0564H78.7102L83.2004 87.0079V80.0564H85.9665V91.1205H82.5635L77.9595 83.9871V91.1205H75.1935ZM20.1642 110.483V99.4185H29.1901V101.893H22.9593V103.786H29.0445V106.115H22.9593V108.081H29.1901V110.483H20.1642ZM64.3915 110.483V99.4185H73.4174V101.893H67.1866V103.786H73.2428V106.115H67.1865V108.081H73.4173V110.483H64.3915ZM29.5405 110.483L33.9352 105.019L29.4358 99.4185H32.9207L35.6003 102.881L38.289 99.4185H41.6374L37.1972 104.951L41.5999 110.483H38.1157L35.5139 107.075L32.9753 110.483H29.5405ZM41.9285 99.4204V110.485H44.7673V106.991H47.6789C50.1425 106.991 52.0099 105.684 52.0099 103.142C52.0099 101.036 50.5453 99.4204 48.0382 99.4204H41.9285ZM44.7673 101.923H47.8335C48.6294 101.923 49.1983 102.41 49.1983 103.196C49.1983 103.935 48.6323 104.47 47.8244 104.47H44.7673V101.923ZM53.2109 99.4185V110.483H55.9769V106.552H57.1416L60.4581 110.483H63.8382L60.1988 106.406C61.6924 106.28 63.2331 104.998 63.2331 103.008C63.2331 100.68 61.4057 99.4185 59.3662 99.4185H53.2109ZM55.9769 101.893H59.1387C59.8972 101.893 60.449 102.487 60.449 103.058C60.449 103.793 59.7341 104.223 59.1797 104.223H55.9769V101.893ZM74.6985 110.483V108.081H80.2342C81.0533 108.081 81.408 107.638 81.408 107.152C81.408 106.687 81.0544 106.217 80.2342 106.217H77.7327C75.5583 106.217 74.3473 104.892 74.3473 102.903C74.3473 101.129 75.4563 99.4185 78.6875 99.4185H84.0739L82.9093 101.908H78.2507C77.3602 101.908 77.0861 102.375 77.0861 102.822C77.0861 103.28 77.4248 103.786 78.1051 103.786H80.7255C83.1494 103.786 84.2013 105.161 84.2013 106.961C84.2013 108.897 83.0292 110.483 80.5936 110.483H74.6985ZM84.8505 110.483V108.081H90.3861C91.2053 108.081 91.5599 107.638 91.5599 107.152C91.5599 106.687 91.2064 106.217 90.3861 106.217H87.8847C85.7102 106.217 84.4993 104.892 84.4993 102.903C84.4993 101.129 85.6082 99.4185 88.8394 99.4185H94.2259L93.0612 101.908H88.4027C87.5122 101.908 87.238 102.375 87.238 102.822C87.238 103.28 87.5767 103.786 88.2571 103.786H90.8775C93.3014 103.786 94.3532 105.161 94.3532 106.961C94.3532 108.897 93.1812 110.483 90.7456 110.483H84.8505Z" fill="#016FD0"/>
</svg>
